<?xml version="1.0" encoding="UTF-8" standalone="no"?>
<!-- Created with Inkscape (http://www.inkscape.org/) -->

<svg
   xmlns:dc="http://purl.org/dc/elements/1.1/"
   xmlns:cc="http://creativecommons.org/ns#"
   xmlns:rdf="http://www.w3.org/1999/02/22-rdf-syntax-ns#"
   xmlns:svg="http://www.w3.org/2000/svg"
   xmlns="http://www.w3.org/2000/svg"
   xmlns:sodipodi="http://sodipodi.sourceforge.net/DTD/sodipodi-0.dtd"
   xmlns:inkscape="http://www.inkscape.org/namespaces/inkscape"
   width="143.40416mm"
   height="143.40416mm"
   viewBox="0 0 143.40416 143.40416"
   version="1.1"
   id="svg4548"
   inkscape:version="0.92.4 (33fec40, 2019-01-16)"
   sodipodi:docname="icon-aim.svg">
  <defs
     id="defs4542" />
  <sodipodi:namedview
     id="base"
     pagecolor="#ffffff"
     bordercolor="#666666"
     borderopacity="1.0"
     inkscape:pageopacity="0.0"
     inkscape:pageshadow="2"
     inkscape:zoom="0.35"
     inkscape:cx="-300.42856"
     inkscape:cy="338.14286"
     inkscape:document-units="mm"
     inkscape:current-layer="layer1"
     showgrid="false"
     fit-margin-top="0"
     fit-margin-left="0"
     fit-margin-right="0"
     fit-margin-bottom="0"
     inkscape:window-width="1366"
     inkscape:window-height="713"
     inkscape:window-x="0"
     inkscape:window-y="27"
     inkscape:window-maximized="1" />
  <metadata
     id="metadata4545">
    <rdf:RDF>
      <cc:Work
         rdf:about="">
        <dc:format>image/svg+xml</dc:format>
        <dc:type
           rdf:resource="http://purl.org/dc/dcmitype/StillImage" />
        <dc:title></dc:title>
      </cc:Work>
    </rdf:RDF>
  </metadata>
  <g
     inkscape:label="Layer 1"
     inkscape:groupmode="layer"
     id="layer1"
     transform="translate(-46.604462,-94.896132)">
    <g
       transform="matrix(1.7488313,0,0,1.7488313,34.362643,82.654313)"
       id="g6"
       style="fill:#0044aa">
      <path
         inkscape:connector-curvature="0"
         d="M 88,46.5 H 83.605 C 82.83,28.182 67.818,13.17 49.5,12.394 V 8 c 0,-0.552 -0.447,-1 -1,-1 h -1 c -0.552,0 -1,0.448 -1,1 v 4.394 C 28.182,13.17 13.17,28.182 12.394,46.5 H 8 c -0.552,0 -1,0.448 -1,1 v 1 c 0,0.553 0.448,1 1,1 h 4.394 C 13.17,67.818 28.182,82.83 46.5,83.605 V 88 c 0,0.553 0.448,1 1,1 h 1 c 0.553,0 1,-0.447 1,-1 V 83.605 C 67.818,82.83 82.83,67.818 83.605,49.5 H 88 c 0.553,0 1,-0.447 1,-1 v -1 c 0,-0.552 -0.447,-1 -1,-1 z m -13.059,3 h 5.661 C 79.832,66.174 66.174,79.832 49.5,80.603 v -5.661 c 0,-0.553 -0.447,-1 -1,-1 h -1 c -0.552,0 -1,0.447 -1,1 v 5.661 C 29.826,79.832 16.168,66.174 15.397,49.5 h 5.661 c 0.552,0 1,-0.447 1,-1 v -1 c 0,-0.552 -0.448,-1 -1,-1 H 15.397 C 16.168,29.826 29.826,16.168 46.5,15.397 v 5.661 c 0,0.552 0.448,1 1,1 h 1 c 0.553,0 1,-0.448 1,-1 V 15.397 C 66.174,16.168 79.832,29.826 80.603,46.5 h -5.661 c -0.553,0 -1,0.448 -1,1 v 1 c -10e-4,0.553 0.447,1 0.999,1 z"
         id="path2"
         style="fill:#0044aa" />
      <path
         inkscape:connector-curvature="0"
         d="M 48,28.864 C 37.448,28.864 28.864,37.448 28.864,48 28.864,58.551 37.448,67.135 48,67.135 58.551,67.135 67.135,58.551 67.135,48 67.135,37.449 58.551,28.864 48,28.864 Z m 0,35.271 c -8.897,0 -16.136,-7.238 -16.136,-16.135 0,-8.897 7.239,-16.136 16.136,-16.136 8.896,0 16.135,7.238 16.135,16.136 0,8.896 -7.239,16.135 -16.135,16.135 z"
         id="path4"
         style="fill:#0044aa" />
    </g>
  </g>
</svg>
