<?xml version="1.0" encoding="UTF-8" standalone="no"?>
<!-- Created with Inkscape (http://www.inkscape.org/) -->

<svg
   xmlns:dc="http://purl.org/dc/elements/1.1/"
   xmlns:cc="http://creativecommons.org/ns#"
   xmlns:rdf="http://www.w3.org/1999/02/22-rdf-syntax-ns#"
   xmlns:svg="http://www.w3.org/2000/svg"
   xmlns="http://www.w3.org/2000/svg"
   xmlns:sodipodi="http://sodipodi.sourceforge.net/DTD/sodipodi-0.dtd"
   xmlns:inkscape="http://www.inkscape.org/namespaces/inkscape"
   width="150.26535mm"
   height="150.26535mm"
   viewBox="0 0 150.26535 150.26535"
   version="1.1"
   id="svg4623"
   inkscape:version="0.92.4 (33fec40, 2019-01-16)"
   sodipodi:docname="icon.svg">
  <defs
     id="defs4617" />
  <sodipodi:namedview
     id="base"
     pagecolor="#ffffff"
     bordercolor="#666666"
     borderopacity="1.0"
     inkscape:pageopacity="0.0"
     inkscape:pageshadow="2"
     inkscape:zoom="0.35"
     inkscape:cx="208.88708"
     inkscape:cy="307.75336"
     inkscape:document-units="mm"
     inkscape:current-layer="layer1"
     showgrid="false"
     fit-margin-top="0"
     fit-margin-left="0"
     fit-margin-right="0"
     fit-margin-bottom="0"
     inkscape:window-width="1366"
     inkscape:window-height="713"
     inkscape:window-x="0"
     inkscape:window-y="27"
     inkscape:window-maximized="1" />
  <metadata
     id="metadata4620">
    <rdf:RDF>
      <cc:Work
         rdf:about="">
        <dc:format>image/svg+xml</dc:format>
        <dc:type
           rdf:resource="http://purl.org/dc/dcmitype/StillImage" />
        <dc:title></dc:title>
      </cc:Work>
    </rdf:RDF>
  </metadata>
  <g
     inkscape:label="Layer 1"
     inkscape:groupmode="layer"
     id="layer1"
     transform="translate(88.151968,-79.994387)">
    <g
       transform="matrix(0.48152737,0,0,0.48152737,-93.435783,75.039332)"
       style="fill:#28170b;image-rendering:optimizeQuality;shape-rendering:geometricPrecision;text-rendering:geometricPrecision"
       id="g4595">
      <path
         inkscape:connector-curvature="0"
         class="fil0"
         d="M 115,303 C 104,296 95,286 87,275 60,317 12,329 11,306 10,288 37,300 59,275 L 25,186 C 20,175 51,164 74,151 74,55 64,66 114,66 114,40 109,13 126,13 h 92 c 17,0 12,27 12,53 50,0 40,-11 40,85 23,13 54,24 50,35 l -38,96 c 20,15 42,8 41,24 -1,23 -50,11 -77,-31 -33,45 -86,59 -131,28 z M 138,66 h 68 V 37 H 138 Z M 247,90 H 97 v 48 l 70,-38 v 0 h 10 l 70,38 z"
         id="path4593"
         style="fill:#28170b" />
    </g>
  </g>
</svg>
